M48
; DRILL file {KiCad 9.0.2} date 2025-07-25T09:02:47+0800
; FORMAT={-:-/ absolute / metric / decimal}
; #@! TF.CreationDate,2025-07-25T09:02:47+08:00
; #@! TF.GenerationSoftware,Kicad,Pcbnew,9.0.2
; #@! TF.FileFunction,Plated,1,2,PTH
FMAT,2
METRIC
; #@! TA.AperFunction,Plated,PTH,ComponentDrill
T1C0.889
; #@! TA.AperFunction,Plated,PTH,ComponentDrill
T2C1.000
; #@! TA.AperFunction,Plated,PTH,ComponentDrill
T3C1.500
%
G90
G05
T1
X137.922Y-45.466
X137.922Y-48.006
X137.922Y-50.546
X137.922Y-53.086
X137.922Y-55.626
X137.922Y-58.166
X137.922Y-60.706
X153.162Y-45.466
X153.162Y-48.006
X153.162Y-50.546
X153.162Y-53.086
X153.162Y-55.626
X153.162Y-58.166
X153.162Y-60.706
T2
X142.13Y-70.092
X144.67Y-70.092
X147.21Y-70.092
X149.75Y-70.092
T3
X113.919Y-105.537
X120.269Y-102.997
X133.096Y-105.537
X139.446Y-102.997
X152.146Y-105.537
X158.496Y-102.997
X171.196Y-105.537
X177.546Y-102.997
M30
